<svg width="29" height="23" viewBox="0 0 29 23" fill="none" xmlns="http://www.w3.org/2000/svg">
<path d="M8.12 8.01319L3.93539 11.5L8.12 14.9868C8.25878 15.1005 8.37367 15.2406 8.45805 15.399C8.54242 15.5573 8.59461 15.7308 8.61161 15.9094C8.62861 16.088 8.61008 16.2683 8.55708 16.4397C8.50408 16.6111 8.41768 16.7704 8.30284 16.9082C8.188 17.0461 8.047 17.1599 7.88798 17.243C7.72896 17.3261 7.55505 17.3769 7.3763 17.3924C7.19755 17.408 7.01748 17.388 6.84648 17.3337C6.67549 17.2793 6.51695 17.1916 6.38 17.0757L0.942501 12.5444C0.789357 12.4169 0.666142 12.2572 0.581583 12.0767C0.497025 11.8962 0.453194 11.6993 0.453194 11.5C0.453194 11.3007 0.497025 11.1038 0.581583 10.9233C0.666142 10.7428 0.789357 10.5831 0.942501 10.4555L6.38 5.92428C6.6574 5.69695 7.01339 5.58846 7.37042 5.62243C7.72746 5.6564 8.0566 5.8301 8.28614 6.10566C8.51568 6.38123 8.62702 6.73635 8.5959 7.09364C8.56478 7.45094 8.39373 7.78146 8.12 8.01319ZM28.0575 10.4555L22.62 5.92428C22.4831 5.80835 22.3245 5.72067 22.1535 5.6663C21.9825 5.61194 21.8025 5.59197 21.6237 5.60754C21.445 5.6231 21.271 5.67391 21.112 5.75701C20.953 5.84012 20.812 5.95389 20.6972 6.09176C20.5823 6.22962 20.4959 6.38886 20.4429 6.56029C20.3899 6.73171 20.3714 6.91193 20.3884 7.09055C20.4054 7.26918 20.4576 7.44267 20.542 7.60102C20.6263 7.75938 20.7412 7.89946 20.88 8.01319L25.0646 11.5L20.88 14.9868C20.7412 15.1005 20.6263 15.2406 20.542 15.399C20.4576 15.5573 20.4054 15.7308 20.3884 15.9094C20.3714 16.088 20.3899 16.2683 20.4429 16.4397C20.4959 16.6111 20.5823 16.7704 20.6972 16.9082C20.812 17.0461 20.953 17.1599 21.112 17.243C21.271 17.3261 21.445 17.3769 21.6237 17.3924C21.8025 17.408 21.9825 17.388 22.1535 17.3337C22.3245 17.2793 22.4831 17.1916 22.62 17.0757L28.0575 12.5444C28.2106 12.4169 28.3339 12.2572 28.4184 12.0767C28.503 11.8962 28.5468 11.6993 28.5468 11.5C28.5468 11.3007 28.503 11.1038 28.4184 10.9233C28.3339 10.7428 28.2106 10.5831 28.0575 10.4555ZM18.5895 0.253425C18.4217 0.192401 18.2435 0.165033 18.0651 0.172885C17.8867 0.180736 17.7116 0.223653 17.5498 0.299184C17.388 0.374715 17.2427 0.48138 17.1222 0.613087C17.0016 0.744794 16.9082 0.898962 16.8472 1.06678L9.59719 21.0043C9.4743 21.343 9.49094 21.7167 9.64346 22.0432C9.79597 22.3697 10.0719 22.6223 10.4105 22.7454C10.5592 22.8003 10.7165 22.8283 10.875 22.8281C11.1541 22.8282 11.4265 22.7423 11.6551 22.5822C11.8837 22.4221 12.0575 22.1955 12.1528 21.9332L19.4028 1.99569C19.4638 1.82789 19.4912 1.64971 19.4834 1.47133C19.4755 1.29294 19.4326 1.11786 19.3571 0.956066C19.2815 0.794274 19.1749 0.648947 19.0432 0.528386C18.9114 0.407825 18.7573 0.314393 18.5895 0.253425Z" fill="#70A19D"/>
</svg>
