<svg width="25" height="25" viewBox="0 0 25 25" fill="none" xmlns="http://www.w3.org/2000/svg">
<path d="M22.0833 0.75C22.7906 0.75 23.4689 1.03095 23.969 1.53105C24.469 2.03115 24.75 2.70942 24.75 3.41667V22.0833C24.75 22.7906 24.469 23.4689 23.969 23.969C23.4689 24.469 22.7906 24.75 22.0833 24.75H3.41667C2.70942 24.75 2.03115 24.469 1.53105 23.969C1.03095 23.4689 0.75 22.7906 0.75 22.0833V3.41667C0.75 2.70942 1.03095 2.03115 1.53105 1.53105C2.03115 1.03095 2.70942 0.75 3.41667 0.75H22.0833ZM21.4167 21.4167V14.35C21.4167 13.1972 20.9587 12.0916 20.1436 11.2764C19.3284 10.4613 18.2228 10.0033 17.07 10.0033C15.9367 10.0033 14.6167 10.6967 13.9767 11.7367V10.2567H10.2567V21.4167H13.9767V14.8433C13.9767 13.8167 14.8033 12.9767 15.83 12.9767C16.3251 12.9767 16.7999 13.1733 17.1499 13.5234C17.5 13.8735 17.6967 14.3483 17.6967 14.8433V21.4167H21.4167ZM5.92333 8.16333C6.51742 8.16333 7.08717 7.92733 7.50725 7.50725C7.92733 7.08717 8.16333 6.51742 8.16333 5.92333C8.16333 4.68333 7.16333 3.67 5.92333 3.67C5.32571 3.67 4.75257 3.9074 4.32999 4.32999C3.9074 4.75257 3.67 5.32571 3.67 5.92333C3.67 7.16333 4.68333 8.16333 5.92333 8.16333ZM7.77667 21.4167V10.2567H4.08333V21.4167H7.77667Z" fill="white"/>
</svg>
