<svg width="31" height="31" viewBox="0 0 31 31" fill="none" xmlns="http://www.w3.org/2000/svg">
<path d="M15.4167 0.916656C7.40831 0.916656 0.916656 7.40831 0.916656 15.4167C0.916656 23.425 7.40831 29.9167 15.4167 29.9167C23.425 29.9167 29.9167 23.425 29.9167 15.4167C29.9167 7.40831 23.425 0.916656 15.4167 0.916656Z" stroke="#D7CDFF" stroke-width="1.5" stroke-linecap="round" stroke-linejoin="round"/>
<path d="M9.66666 28.87V18.4166L15.5 8.20831L21.3333 18.4166V28.87" stroke="#D7CDFF" stroke-width="1.5" stroke-linecap="round" stroke-linejoin="round"/>
<path d="M9.66666 18.4167C9.66666 18.4167 11.3102 19.875 12.5833 19.875C13.8564 19.875 15.5 18.4167 15.5 18.4167C15.5 18.4167 17.1435 19.875 18.4167 19.875C19.6898 19.875 21.3333 18.4167 21.3333 18.4167" stroke="#D7CDFF" stroke-width="1.5" stroke-linecap="round" stroke-linejoin="round"/>
</svg>
