<svg width="31" height="21" viewBox="0 0 31 21" fill="none" xmlns="http://www.w3.org/2000/svg">
<path d="M23.6241 1.71079C22.0652 1.73673 20.5634 2.26956 19.3711 3.2197C18.1787 4.16984 17.3686 5.47933 17.077 6.92799C15.6132 4.776 14.4666 2.44518 13.6689 0H10.2907V8.48325C10.2907 9.28572 9.95372 10.0553 9.35383 10.6227C8.75393 11.1902 7.9403 11.5089 7.09193 11.5089C6.24355 11.5089 5.42992 11.1902 4.83003 10.6227C4.23014 10.0553 3.89312 9.28572 3.89312 8.48325V0L0.5 0.0706934V8.55395C0.509911 10.2039 1.21235 11.7825 2.45278 12.9425C3.69321 14.1026 5.37003 14.749 7.11435 14.7397C8.85867 14.7303 10.5276 14.0659 11.754 12.8926C12.9804 11.7193 13.6639 10.1332 13.654 8.48325V7.06938C14.3711 8.39993 15.1957 9.6762 16.1203 10.8868L14.0575 20.2326H17.5254L19.0202 13.4318C20.4055 14.2739 22.0223 14.7116 23.6689 14.6902C25.4806 14.6902 27.2181 14.0094 28.4992 12.7977C29.7803 11.5859 30.5 9.94243 30.5 8.22876C30.5 6.51508 29.7803 4.8716 28.4992 3.65985C27.2181 2.4481 25.4806 1.76734 23.6689 1.76734L23.6241 1.71079ZM23.6241 11.3676C22.2195 11.3247 20.8734 10.8253 19.8124 9.95368L20.1562 8.66706V8.59636C20.3954 7.18249 21.1428 4.92029 23.6689 4.92029C24.1118 4.91656 24.5512 4.99562 24.9617 5.15294C25.3722 5.31026 25.7458 5.54273 26.0611 5.837C26.3764 6.13128 26.6271 6.48157 26.7989 6.86775C26.9707 7.25393 27.0601 7.6684 27.062 8.08737C27.03 8.93565 26.6644 9.74208 26.0368 10.3488C25.4092 10.9555 24.5648 11.3188 23.6689 11.3676H23.6241Z" fill="white"/>
</svg>
